PathFileType  4	(X/Y/Z) C:\Users\antoi\Documents\MyRepositories\mobilecap\ResultsAnalysis
DataRate	CameraRate	NumFrames	NumMarkers	Units	OrigDataRate	OrigDataStartFrame	OrigNumFrames
100.0	100.0	6	51	mm	100.0	190	216
Frame#	Time	r_knee			r_shank_antsup			r_ankle			r_calc			r_5meta			r_toe			L_knee			L_shank_antsup			L_ankle			L_calc			L_5meta			L_toe			r_sh2			r_sh3			r_sh4			L_sh2			L_sh3			r_thigh1			r_thigh2			r_thigh3			r_thigh4			r_thigh5			L_thigh1			L_thigh2			L_thigh3			L_thigh4			r.ASIS			r.PSIS			L.ASIS			L.PSIS			C7			R_Shoulder			L_Shoulder			R_Sternum			L_Sternum			R_humerus			R_elbow_med			R_elbow_lat			R_forearm			R_wrist_radius			R_wrist_ulna			L_humerus			L_elbow_med			L_elbow_lat			L_forearm			L_wrist_radius			L_wrist_ulna			R_HJC			L_HJC			R_HJC_reg			L_HJC_reg			
		X1	Y1	Z1	X2	Y2	Z2	X3	Y3	Z3	X4	Y4	Z4	X5	Y5	Z5	X6	Y6	Z6	X7	Y7	Z7	X8	Y8	Z8	X9	Y9	Z9	X10	Y10	Z10	X11	Y11	Z11	X12	Y12	Z12	X13	Y13	Z13	X14	Y14	Z14	X15	Y15	Z15	X16	Y16	Z16	X17	Y17	Z17	X18	Y18	Z18	X19	Y19	Z19	X20	Y20	Z20	X21	Y21	Z21	X22	Y22	Z22	X23	Y23	Z23	X24	Y24	Z24	X25	Y25	Z25	X26	Y26	Z26	X27	Y27	Z27	X28	Y28	Z28	X29	Y29	Z29	X30	Y30	Z30	X31	Y31	Z31	X32	Y32	Z32	X33	Y33	Z33	X34	Y34	Z34	X35	Y35	Z35	X36	Y36	Z36	X37	Y37	Z37	X38	Y38	Z38	X39	Y39	Z39	X40	Y40	Z40	X41	Y41	Z41	X42	Y42	Z42	X43	Y43	Z43	X44	Y44	Z44	X45	Y45	Z45	X46	Y46	Z46	X47	Y47	Z47	X48	Y48	Z48	X49	Y49	Z49	X50	Y50	Z50	X51	Y51	Z51	

190	1.89000000	-153.42703	764.80433	-334.75050	-117.76355	697.02894	-332.68430	-214.86413	367.44149	-268.75677	-281.75086	357.18748	-313.34671	-144.66746	273.22342	-219.48126	-82.27109	277.99292	-265.21217	-136.20473	801.31850	-831.75670	-100.88028	721.73986	-866.06224	-157.04949	412.78468	-921.37963	-211.59758	396.93340	-858.19978	-97.22017	314.63764	-988.04067	-35.64793	321.25109	-953.55849	-149.38797	593.99506	-287.97721	-194.86850	718.87459	-313.99338	-220.93699	611.72262	-288.47485	-188.69953	726.65206	-850.33361	-189.60470	609.89975	-890.75110	-124.45227	1084.05432	-369.10401	-118.13594	974.59613	-351.10691	-173.00180	951.68788	-321.16805	-237.74585	1077.35475	-358.58318	-225.45294	961.85059	-340.16466	-176.66573	1071.28869	-806.92054	-131.54347	940.82444	-820.97886	-270.65732	1027.73359	-748.81045	-223.79414	900.01666	-783.74006	-107.13324	1231.40876	-441.03438	-288.80626	1299.18476	-503.15818	-125.85807	1224.25800	-686.72662	-303.52290	1308.75522	-600.59677	-89.38097	1680.25141	-598.70537	-8.73665	1618.64660	-439.31383	-76.48770	1605.50749	-764.07823	13.96152	1564.33849	-585.41416	5.35909	1556.79250	-617.23266	-23.31222	1510.19221	-346.08128	-139.14282	1323.54534	-312.18286	-89.88919	1340.66599	-257.33940	7.82685	1244.81296	-305.19593	79.03114	1149.91287	-351.29193	74.77186	1125.96801	-325.53321	-125.29721	1516.76067	-833.58780	-258.48440	1316.00607	-803.67118	-246.71120	1354.04387	-881.12414	-141.45700	1369.28782	-851.65148	-7.38004	1374.58609	-806.10492	0.19109	1354.07455	-831.57744	-196.65544	1165.22133	-455.82159	-213.64492	1166.11374	-661.58957	-184.72268	1157.92396	-470.36777	-208.90703	1173.65155	-630.48532	
191	1.90000000	-150.46694	756.52263	-334.11172	-114.66568	687.79039	-332.83684	-216.10228	360.03496	-268.13037	-284.21770	350.05108	-311.20926	-145.46876	265.82501	-220.07238	-83.84645	269.93744	-267.68293	-134.80292	793.11810	-831.90948	-99.84487	713.02009	-865.57089	-158.28554	404.76448	-921.55973	-214.07825	388.47185	-859.18648	-97.36062	307.48564	-987.99825	-36.47900	313.40564	-951.87359	-147.12380	585.44083	-288.06236	-191.13440	711.15554	-312.68415	-218.50632	604.28872	-286.84782	-187.80641	718.92450	-850.57150	-189.46807	602.07912	-890.95210	-124.54658	1075.68325	-369.85880	-117.24813	966.46813	-351.05668	-171.77460	943.32664	-320.77559	-237.59769	1068.46037	-357.74497	-224.40135	952.93409	-339.78494	-174.91849	1062.85857	-806.86991	-129.92185	932.59696	-820.79221	-269.69307	1019.56701	-750.41267	-222.80989	891.86177	-784.83813	-108.51351	1222.36990	-441.02312	-289.75376	1291.17213	-503.41425	-127.08387	1214.82533	-685.86773	-303.88228	1300.79281	-600.73945	-88.31402	1670.98841	-598.07412	-7.83613	1609.10320	-438.94684	-75.84646	1596.78568	-763.37644	14.86002	1554.98836	-584.83991	6.25955	1547.81617	-616.77439	-22.97818	1501.18981	-344.95783	-138.68899	1314.42414	-310.84635	-89.52913	1331.71555	-256.05637	8.57321	1236.39644	-303.84048	80.27212	1141.59036	-350.61038	76.13095	1117.89422	-324.29377	-125.12947	1508.90927	-833.24681	-259.41744	1308.84325	-803.22350	-247.36150	1346.77421	-880.96008	-141.86462	1361.50581	-851.69066	-7.73175	1365.81156	-806.36329	-0.33866	1345.38755	-831.96527	-198.54134	1156.77245	-455.45887	-215.14701	1157.32180	-661.26044	-186.80863	1149.31666	-470.55540	-209.98930	1165.10318	-630.24917	
192	1.91000000	-147.48970	747.38712	-333.70565	-111.59204	677.63861	-333.05629	-217.41990	351.83340	-267.76864	-286.67292	341.72685	-309.49072	-146.06746	257.49575	-221.37663	-85.38744	261.38742	-270.31805	-133.79423	783.81333	-831.80613	-99.07060	703.32632	-865.04737	-159.68471	395.50591	-921.11191	-216.68825	378.72288	-860.01459	-97.04474	299.42473	-987.80866	-37.06020	304.60377	-949.35236	-145.11504	575.90863	-288.08449	-187.49918	702.33990	-311.74689	-216.12943	595.92234	-285.82764	-187.00938	710.07248	-850.76865	-189.53265	593.19920	-890.67893	-124.80832	1066.52812	-370.63439	-116.53467	957.47999	-351.09194	-170.79113	934.06288	-320.64003	-237.80916	1058.40647	-357.34190	-223.56039	943.06970	-339.65749	-173.77176	1053.30810	-806.28686	-128.69706	923.37648	-820.38577	-269.05292	1010.38336	-751.52345	-222.07341	882.48341	-785.58813	-109.83771	1212.30709	-441.24013	-290.84566	1281.83795	-503.44984	-128.10884	1204.59037	-685.86458	-304.52149	1291.49668	-600.69862	-87.16108	1660.76324	-597.37520	-6.86764	1598.62978	-438.43022	-74.84473	1587.17247	-762.93995	15.89258	1544.81542	-584.06825	7.18283	1537.90622	-616.44969	-22.76922	1491.41311	-343.62843	-138.08296	1304.17472	-309.61366	-89.15660	1321.87059	-254.66131	9.54447	1227.18481	-302.51605	81.82986	1132.79837	-349.55226	77.86250	1109.16134	-323.12431	-124.48302	1499.80880	-833.06312	-260.31812	1300.75043	-802.45049	-247.71014	1338.46949	-880.95137	-142.11284	1352.78816	-851.41481	-7.94642	1356.38683	-806.46486	-0.67747	1336.08274	-832.15837	-200.06255	1147.04734	-455.46295	-216.56866	1147.58050	-661.27256	-188.61610	1139.50335	-471.01680	-211.06466	1155.35810	-630.65011	
193	1.92000000	-144.52317	737.36790	-333.45741	-108.68501	666.85897	-333.40647	-218.73072	342.73914	-267.66675	-289.07780	332.25255	-308.10462	-146.58738	248.37326	-222.90072	-86.91373	252.38060	-272.74202	-133.05490	773.48167	-831.65824	-98.42938	692.64455	-864.51502	-161.27532	385.11060	-920.05807	-219.66876	367.43116	-860.81501	-96.36859	290.03115	-986.51293	-37.36294	295.24877	-946.03959	-143.46773	565.47926	-288.11894	-183.97547	692.66511	-310.91528	-214.03099	586.92553	-285.09181	-186.31831	700.13688	-850.84628	-189.74261	583.22374	-890.20758	-125.43957	1056.56655	-371.18496	-116.01800	947.71256	-351.20331	-170.07483	923.82165	-320.75696	-238.34283	1047.36545	-357.37408	-222.91064	932.28125	-339.59754	-173.24827	1042.88439	-805.70604	-127.90119	913.07628	-819.87139	-268.74571	1000.22517	-752.30066	-221.68055	871.91044	-785.96519	-111.22157	1201.13033	-441.57408	-291.95560	1271.16817	-503.46014	-129.14993	1193.36367	-686.01720	-305.45005	1280.94797	-600.73647	-85.93462	1649.58688	-596.44151	-5.84587	1587.20395	-437.77096	-73.68744	1576.56383	-762.37366	16.97602	1533.74443	-583.17385	8.17689	1526.78828	-615.97948	-22.61621	1480.76726	-342.25047	-137.34706	1292.87120	-308.46594	-88.71052	1311.11640	-253.23027	10.66909	1217.14827	-301.26105	83.55541	1123.49077	-348.04819	79.83995	1099.77878	-322.05923	-123.53619	1489.39477	-832.73185	-260.71403	1291.12937	-802.31361	-247.78313	1329.04751	-881.01377	-142.23909	1343.13628	-851.15634	-8.06731	1346.27874	-806.36388	-0.85835	1326.24118	-832.30465	-201.51813	1136.09172	-455.62005	-217.97717	1136.72725	-661.43287	-190.16443	1128.47622	-471.49267	-212.29456	1144.51367	-631.01528	
194	1.93000000	-141.66005	726.47958	-333.15945	-105.97838	655.38358	-333.66847	-219.98236	332.69495	-267.91432	-291.41319	321.76131	-306.92631	-147.06491	238.52262	-224.40223	-88.28014	242.85960	-275.06045	-132.46150	762.19293	-831.40223	-97.82413	680.81529	-863.90623	-162.98159	373.69407	-918.86343	-223.07393	354.59980	-861.53085	-95.43313	279.30666	-983.69677	-37.49443	285.54363	-942.02529	-142.04504	554.24819	-288.39919	-180.69512	682.28764	-310.32987	-212.31249	577.08083	-284.65309	-185.78273	689.24590	-850.75401	-190.12749	572.18879	-889.73836	-126.43791	1045.77789	-371.23153	-115.68788	937.13779	-351.33590	-169.62653	912.50612	-321.08093	-239.18367	1035.36211	-357.61077	-222.46625	920.45744	-339.83143	-173.23810	1031.60538	-805.53069	-127.56035	901.81772	-819.42696	-268.93395	988.90219	-752.99219	-221.56670	860.36675	-786.10424	-112.60176	1188.78002	-442.03205	-293.01330	1259.36560	-503.63830	-130.34925	1181.19036	-686.32870	-306.56683	1269.31573	-601.04426	-84.57756	1637.39088	-595.28046	-4.67234	1574.80100	-437.04877	-72.48593	1564.82541	-761.36845	18.10069	1521.64648	-582.22852	9.27705	1514.41066	-615.05386	-22.42307	1469.20901	-340.93043	-136.50882	1280.73843	-307.26634	-88.20487	1299.47613	-251.85374	11.91293	1206.30131	-299.99262	85.52389	1113.34974	-346.66975	82.01900	1089.50144	-320.97888	-122.50238	1477.78478	-832.20518	-260.65312	1280.15730	-802.56630	-247.75646	1318.58095	-881.01516	-142.23274	1332.62518	-851.09761	-8.13752	1335.44113	-806.14379	-0.89976	1315.73179	-832.42531	-203.01820	1123.99557	-456.01499	-219.45397	1124.84805	-661.82870	-191.59499	1116.36877	-471.95961	-213.77184	1132.64974	-631.34085	
195	1.94000000	-138.94338	714.71288	-332.85980	-103.40281	642.97107	-333.67682	-221.24874	321.71696	-268.60633	-293.64787	310.24655	-306.26676	-147.46572	227.98871	-225.93349	-89.44191	232.77184	-277.42654	-131.96736	749.85673	-830.73640	-97.24698	667.88379	-863.15302	-164.81140	361.27778	-917.49731	-226.70072	340.53528	-862.01657	-94.26968	267.66401	-980.01158	-37.60136	275.15356	-937.16297	-140.66639	542.11856	-288.86212	-177.66561	670.91648	-310.13805	-210.84058	566.09999	-284.50318	-185.31869	677.48529	-850.59378	-190.65713	560.21524	-889.15325	-127.65820	1034.16119	-371.05118	-115.51251	925.66323	-351.39319	-169.41019	900.10701	-321.52950	-240.31953	1022.22793	-358.05842	-222.21305	907.48937	-340.58052	-173.71267	1019.21399	-805.50999	-127.53470	889.63127	-818.96210	-269.68669	976.21057	-753.49982	-221.56699	847.91704	-786.16301	-113.87305	1175.30806	-442.60584	-294.04063	1246.60820	-503.89748	-131.66584	1168.16468	-686.82938	-307.72518	1256.63987	-601.43615	-83.08443	1624.12646	-594.10139	-3.28468	1561.38624	-436.29430	-71.18321	1552.01210	-760.16284	19.42116	1508.49446	-581.23542	10.44605	1500.92480	-613.95002	-22.08526	1456.66406	-339.67692	-135.56088	1267.83616	-306.07705	-87.61959	1286.97680	-250.44828	13.28887	1194.59740	-298.65941	87.76774	1102.36809	-345.57686	84.39219	1078.13326	-319.85318	-121.43665	1465.16584	-831.53714	-260.52634	1268.35863	-802.42930	-247.76767	1307.13890	-880.90153	-142.11692	1321.20876	-851.02787	-8.15692	1323.83665	-806.03476	-0.84641	1304.33965	-832.47752	-204.46983	1110.83812	-456.59940	-220.98402	1112.04637	-662.40508	-193.02863	1103.42332	-472.42087	-215.37689	1119.80619	-631.71250	
